<svg width="36" height="28" viewBox="0 0 36 28" fill="none" xmlns="http://www.w3.org/2000/svg">
<path d="M30.25 9.62502H29.69L27.5025 4.16502C27.1118 3.19422 26.4399 2.36232 25.5731 1.7761C24.7062 1.18989 23.684 0.8761 22.6375 0.875022H12.1375C10.9218 0.871542 9.74249 1.29011 8.80098 2.05927C7.85947 2.82843 7.21409 3.90051 6.975 5.09252L6.065 9.62502H5.75C4.35761 9.62502 3.02226 10.1781 2.03769 11.1627C1.05312 12.1473 0.5 13.4826 0.5 14.875V20.125C0.5 20.5892 0.684374 21.0343 1.01256 21.3625C1.34075 21.6906 1.78587 21.875 2.25 21.875H4C4 23.2674 4.55312 24.6028 5.53769 25.5873C6.52226 26.5719 7.85761 27.125 9.25 27.125C10.6424 27.125 11.9777 26.5719 12.9623 25.5873C13.9469 24.6028 14.5 23.2674 14.5 21.875H21.5C21.5 23.2674 22.0531 24.6028 23.0377 25.5873C24.0223 26.5719 25.3576 27.125 26.75 27.125C28.1424 27.125 29.4777 26.5719 30.4623 25.5873C31.4469 24.6028 32 23.2674 32 21.875H33.75C34.2141 21.875 34.6592 21.6906 34.9874 21.3625C35.3156 21.0343 35.5 20.5892 35.5 20.125V14.875C35.5 13.4826 34.9469 12.1473 33.9623 11.1627C32.9777 10.1781 31.6424 9.62502 30.25 9.62502V9.62502ZM19.75 4.37502H22.6375C22.985 4.37817 23.3237 4.4847 23.6104 4.68105C23.8972 4.8774 24.1189 5.15466 24.2475 5.47752L25.91 9.62502H19.75V4.37502ZM10.405 5.77502C10.4868 5.37379 10.7067 5.01395 11.0265 4.75815C11.3463 4.50234 11.7456 4.36677 12.155 4.37502H16.25V9.62502H9.635L10.405 5.77502ZM9.25 23.625C8.90388 23.625 8.56554 23.5224 8.27775 23.3301C7.98997 23.1378 7.76566 22.8645 7.63321 22.5447C7.50076 22.2249 7.4661 21.8731 7.53363 21.5336C7.60115 21.1941 7.76782 20.8823 8.01256 20.6376C8.25731 20.3928 8.56913 20.2262 8.90859 20.1586C9.24806 20.0911 9.59993 20.1258 9.9197 20.2582C10.2395 20.3907 10.5128 20.615 10.7051 20.9028C10.8974 21.1906 11 21.5289 11 21.875C11 22.3392 10.8156 22.7843 10.4874 23.1125C10.1592 23.4407 9.71413 23.625 9.25 23.625ZM26.75 23.625C26.4039 23.625 26.0655 23.5224 25.7778 23.3301C25.49 23.1378 25.2657 22.8645 25.1332 22.5447C25.0008 22.2249 24.9661 21.8731 25.0336 21.5336C25.1011 21.1941 25.2678 20.8823 25.5126 20.6376C25.7573 20.3928 26.0691 20.2262 26.4086 20.1586C26.7481 20.0911 27.0999 20.1258 27.4197 20.2582C27.7395 20.3907 28.0128 20.615 28.2051 20.9028C28.3974 21.1906 28.5 21.5289 28.5 21.875C28.5 22.3392 28.3156 22.7843 27.9874 23.1125C27.6592 23.4407 27.2141 23.625 26.75 23.625ZM32 18.375H30.635C30.1429 17.8337 29.5432 17.4011 28.8741 17.1051C28.2051 16.8091 27.4816 16.6562 26.75 16.6562C26.0184 16.6562 25.2949 16.8091 24.6259 17.1051C23.9568 17.4011 23.3571 17.8337 22.865 18.375H13.135C12.6429 17.8337 12.0432 17.4011 11.3741 17.1051C10.7051 16.8091 9.98158 16.6562 9.25 16.6562C8.51842 16.6562 7.79491 16.8091 7.12588 17.1051C6.45685 17.4011 5.85707 17.8337 5.365 18.375H4V14.875C4 14.4109 4.18437 13.9658 4.51256 13.6376C4.84075 13.3094 5.28587 13.125 5.75 13.125H30.25C30.7141 13.125 31.1592 13.3094 31.4874 13.6376C31.8156 13.9658 32 14.4109 32 14.875V18.375Z" fill="#EE3255"/>
</svg>
