<svg width="40" height="26" viewBox="0 0 40 26" fill="none" xmlns="http://www.w3.org/2000/svg">
<path d="M9.5 11.25C9.15388 11.25 8.81554 11.3526 8.52775 11.5449C8.23997 11.7372 8.01566 12.0105 7.88321 12.3303C7.75076 12.6501 7.7161 13.0019 7.78363 13.3414C7.85115 13.6809 8.01782 13.9927 8.26256 14.2374C8.50731 14.4822 8.81913 14.6489 9.15859 14.7164C9.49806 14.7839 9.84993 14.7492 10.1697 14.6168C10.4895 14.4843 10.7628 14.26 10.9551 13.9722C11.1474 13.6845 11.25 13.3461 11.25 13C11.25 12.5359 11.0656 12.0908 10.7374 11.7626C10.4092 11.4344 9.96413 11.25 9.5 11.25ZM30.5 11.25C30.1539 11.25 29.8155 11.3526 29.5278 11.5449C29.24 11.7372 29.0157 12.0105 28.8832 12.3303C28.7508 12.6501 28.7161 13.0019 28.7836 13.3414C28.8511 13.6809 29.0178 13.9927 29.2626 14.2374C29.5073 14.4822 29.8191 14.6489 30.1586 14.7164C30.4981 14.7839 30.8499 14.7492 31.1697 14.6168C31.4895 14.4843 31.7628 14.26 31.9551 13.9722C32.1474 13.6845 32.25 13.3461 32.25 13C32.25 12.5359 32.0656 12.0908 31.7374 11.7626C31.4092 11.4344 30.9641 11.25 30.5 11.25ZM34 0.75H6C4.60761 0.75 3.27226 1.30312 2.28769 2.28769C1.30312 3.27226 0.75 4.60761 0.75 6V20C0.75 21.3924 1.30312 22.7277 2.28769 23.7123C3.27226 24.6969 4.60761 25.25 6 25.25H34C35.3924 25.25 36.7277 24.6969 37.7123 23.7123C38.6969 22.7277 39.25 21.3924 39.25 20V6C39.25 4.60761 38.6969 3.27226 37.7123 2.28769C36.7277 1.30312 35.3924 0.75 34 0.75ZM35.75 20C35.75 20.4641 35.5656 20.9092 35.2374 21.2374C34.9092 21.5656 34.4641 21.75 34 21.75H6C5.53587 21.75 5.09075 21.5656 4.76256 21.2374C4.43437 20.9092 4.25 20.4641 4.25 20V6C4.25 5.53587 4.43437 5.09075 4.76256 4.76256C5.09075 4.43437 5.53587 4.25 6 4.25H34C34.4641 4.25 34.9092 4.43437 35.2374 4.76256C35.5656 5.09075 35.75 5.53587 35.75 6V20ZM20 7.75C18.9616 7.75 17.9466 8.05791 17.0833 8.63478C16.2199 9.21166 15.547 10.0316 15.1496 10.9909C14.7523 11.9502 14.6483 13.0058 14.8509 14.0242C15.0534 15.0426 15.5535 15.9781 16.2877 16.7123C17.0219 17.4465 17.9574 17.9466 18.9758 18.1491C19.9942 18.3517 21.0498 18.2477 22.0091 17.8504C22.9684 17.453 23.7883 16.7801 24.3652 15.9167C24.9421 15.0534 25.25 14.0384 25.25 13C25.25 11.6076 24.6969 10.2723 23.7123 9.28769C22.7277 8.30312 21.3924 7.75 20 7.75ZM20 14.75C19.6539 14.75 19.3155 14.6474 19.0278 14.4551C18.74 14.2628 18.5157 13.9895 18.3832 13.6697C18.2508 13.3499 18.2161 12.9981 18.2836 12.6586C18.3511 12.3191 18.5178 12.0073 18.7626 11.7626C19.0073 11.5178 19.3191 11.3511 19.6586 11.2836C19.9981 11.2161 20.3499 11.2508 20.6697 11.3832C20.9895 11.5157 21.2628 11.74 21.4551 12.0278C21.6474 12.3155 21.75 12.6539 21.75 13C21.75 13.4641 21.5656 13.9092 21.2374 14.2374C20.9092 14.5656 20.4641 14.75 20 14.75Z" fill="#EE3255"/>
</svg>
