<?xml version="1.0" standalone="no"?>
<!DOCTYPE svg PUBLIC "-//W3C//DTD SVG 20010904//EN"
 "http://www.w3.org/TR/2001/REC-SVG-20010904/DTD/svg10.dtd">
<svg version="1.0" xmlns="http://www.w3.org/2000/svg"
 width="12.000000pt" height="12.000000pt" viewBox="0 0 512.000000 512.000000"
 preserveAspectRatio="xMidYMid meet">

<g transform="translate(0.000000,512.000000) scale(0.100000,-0.100000)"
fill="#fff" stroke="none">
<path d="M2270 4834 c-1055 -135 -1881 -982 -1991 -2043 -15 -143 -6 -461 16
-591 102 -602 414 -1116 900 -1480 329 -246 710 -394 1133 -440 142 -16 460
-8 592 15 682 115 1254 504 1610 1095 170 281 272 591 310 938 16 139 8 448
-14 586 -136 852 -737 1557 -1556 1826 -131 44 -321 84 -462 99 -130 15 -408
12 -538 -5z m520 -314 c368 -46 725 -197 1010 -427 89 -72 257 -243 321 -328
122 -159 237 -371 299 -550 220 -634 109 -1326 -299 -1860 -64 -85 -232 -256
-321 -328 -531 -429 -1247 -553 -1895 -327 -393 137 -761 427 -998 785 -157
239 -270 549 -307 845 -13 109 -13 351 0 460 46 368 197 725 427 1010 72 89
243 257 328 321 276 211 622 354 965 398 95 12 373 13 470 1z"/>
<path d="M2480 3548 c-18 -13 -43 -36 -54 -51 -21 -28 -21 -36 -21 -617 0
-581 0 -589 21 -617 73 -98 195 -98 268 0 21 28 21 36 21 617 0 581 0 589 -21
617 -35 48 -82 73 -134 73 -32 0 -57 -7 -80 -22z"/>
<path d="M2486 1905 c-124 -44 -176 -209 -100 -318 113 -160 366 -96 382 98
13 160 -132 274 -282 220z"/>
</g>
</svg>
