<svg width="36" height="36" viewBox="0 0 36 36" fill="none" xmlns="http://www.w3.org/2000/svg">
<path d="M30.25 4H26.75V2.25C26.75 1.78587 26.5656 1.34075 26.2374 1.01256C25.9092 0.684374 25.4641 0.5 25 0.5C24.5359 0.5 24.0908 0.684374 23.7626 1.01256C23.4344 1.34075 23.25 1.78587 23.25 2.25V4H12.75V2.25C12.75 1.78587 12.5656 1.34075 12.2374 1.01256C11.9092 0.684374 11.4641 0.5 11 0.5C10.5359 0.5 10.0908 0.684374 9.76256 1.01256C9.43437 1.34075 9.25 1.78587 9.25 2.25V4H5.75C4.35761 4 3.02226 4.55312 2.03769 5.53769C1.05312 6.52226 0.5 7.85761 0.5 9.25V30.25C0.5 31.6424 1.05312 32.9777 2.03769 33.9623C3.02226 34.9469 4.35761 35.5 5.75 35.5H30.25C31.6424 35.5 32.9777 34.9469 33.9623 33.9623C34.9469 32.9777 35.5 31.6424 35.5 30.25V9.25C35.5 7.85761 34.9469 6.52226 33.9623 5.53769C32.9777 4.55312 31.6424 4 30.25 4V4ZM32 30.25C32 30.7141 31.8156 31.1592 31.4874 31.4874C31.1592 31.8156 30.7141 32 30.25 32H5.75C5.28587 32 4.84075 31.8156 4.51256 31.4874C4.18437 31.1592 4 30.7141 4 30.25V18H32V30.25ZM32 14.5H4V9.25C4 8.78587 4.18437 8.34075 4.51256 8.01256C4.84075 7.68437 5.28587 7.5 5.75 7.5H9.25V9.25C9.25 9.71413 9.43437 10.1592 9.76256 10.4874C10.0908 10.8156 10.5359 11 11 11C11.4641 11 11.9092 10.8156 12.2374 10.4874C12.5656 10.1592 12.75 9.71413 12.75 9.25V7.5H23.25V9.25C23.25 9.71413 23.4344 10.1592 23.7626 10.4874C24.0908 10.8156 24.5359 11 25 11C25.4641 11 25.9092 10.8156 26.2374 10.4874C26.5656 10.1592 26.75 9.71413 26.75 9.25V7.5H30.25C30.7141 7.5 31.1592 7.68437 31.4874 8.01256C31.8156 8.34075 32 8.78587 32 9.25V14.5Z" fill="#EE3255"/>
</svg>
