<svg width="36" height="38" viewBox="0 0 36 38" fill="none" xmlns="http://www.w3.org/2000/svg">
<path d="M32 14.9225V14.625C32.0106 11.6482 31.0661 8.74644 29.3053 6.34617C27.5445 3.94591 25.0602 2.17373 22.2175 1.29005H22.1125C20.6443 0.842457 19.1146 0.629831 17.58 0.660048C13.9257 0.860585 10.4857 2.44811 7.96198 5.09862C5.43831 7.74913 4.02124 11.2628 3.99999 14.9225C2.97451 15.2833 2.0863 15.9535 1.45797 16.8406C0.829643 17.7277 0.492188 18.788 0.492188 19.875C0.492188 20.9621 0.829643 22.0224 1.45797 22.9095C2.0863 23.7966 2.97451 24.4668 3.99999 24.8275C4.36043 28.2834 5.9931 31.4818 8.58058 33.8008C11.1681 36.1198 14.5254 37.3938 18 37.3751H18.4025C21.7624 37.2124 24.9561 35.8645 27.4165 33.5707C29.877 31.2768 31.4451 28.1854 31.8425 24.845C32.88 24.5047 33.7857 23.8493 34.4332 22.9701C35.0808 22.0909 35.4382 21.0317 35.4555 19.9399C35.4728 18.8481 35.1493 17.778 34.5299 16.8787C33.9106 15.9795 33.0262 15.2956 32 14.9225ZM18.315 33.8751C15.7817 33.9483 13.3074 33.1029 11.3486 31.4947C9.38984 29.8865 8.07883 27.6241 7.65749 25.125H28.255C27.8279 27.4909 26.6135 29.6428 24.8089 31.2313C23.0044 32.8197 20.7159 33.7514 18.315 33.8751ZM30.25 21.625H5.74999C5.28586 21.625 4.84074 21.4407 4.51256 21.1125C4.18437 20.7843 3.99999 20.3392 3.99999 19.875C3.99999 19.4109 4.18437 18.9658 4.51256 18.6376C4.84074 18.3094 5.28586 18.125 5.74999 18.125H9.24999C9.71412 18.125 10.1592 17.9407 10.4874 17.6125C10.8156 17.2843 11 16.8392 11 16.375C11 15.9109 10.8156 15.4658 10.4874 15.1376C10.1592 14.8094 9.71412 14.625 9.24999 14.625H7.49999C7.57833 12.8096 8.0972 11.0405 9.01185 9.47037C9.9265 7.90022 11.2094 6.5762 12.75 5.61255V11.125C12.75 11.5892 12.9344 12.0343 13.2626 12.3625C13.5907 12.6907 14.0359 12.875 14.5 12.875C14.9641 12.875 15.4092 12.6907 15.7374 12.3625C16.0656 12.0343 16.25 11.5892 16.25 11.125V4.28255C16.725 4.20319 17.2041 4.15061 17.685 4.12505H18C18.5865 4.13331 19.1715 4.18596 19.75 4.28255V11.125C19.75 11.5892 19.9344 12.0343 20.2626 12.3625C20.5907 12.6907 21.0359 12.875 21.5 12.875C21.9641 12.875 22.4092 12.6907 22.7374 12.3625C23.0656 12.0343 23.25 11.5892 23.25 11.125V5.56005C23.9923 5.98989 24.6849 6.50049 25.315 7.08255C26.324 8.06237 27.1258 9.23491 27.6729 10.5306C28.2201 11.8262 28.5013 13.2186 28.5 14.625H26.75C26.2859 14.625 25.8407 14.8094 25.5126 15.1376C25.1844 15.4658 25 15.9109 25 16.375C25 16.8392 25.1844 17.2843 25.5126 17.6125C25.8407 17.9407 26.2859 18.125 26.75 18.125H30.25C30.7141 18.125 31.1592 18.3094 31.4874 18.6376C31.8156 18.9658 32 19.4109 32 19.875C32 20.3392 31.8156 20.7843 31.4874 21.1125C31.1592 21.4407 30.7141 21.625 30.25 21.625Z" fill="#EE3255"/>
</svg>
