<svg version="1.0" xmlns="http://www.w3.org/2000/svg"
    viewBox="0 0 512.000000 512.000000"
    preserveAspectRatio="xMidYMid meet">

    <g transform="translate(0.000000,512.000000) scale(0.100000,-0.100000)"
        fill="#fff" stroke="none">
        <path
            d="M541 4949 c-129 -25 -267 -132 -326 -253 -19 -39 -40 -95 -45 -125
-6 -31 -10 -263 -10 -552 l0 -499 720 0 720 0 0 720 0 720 -507 -1 c-280 -1
-528 -5 -552 -10z" />
        <path d="M1920 4240 l0 -720 640 0 640 0 0 720 0 720 -640 0 -640 0 0 -720z" />
        <path
            d="M3520 4240 l0 -720 720 0 720 0 0 499 c0 297 -4 520 -10 552 -26 138
-129 273 -254 334 -39 19 -95 40 -125 45 -31 6 -263 10 -552 10 l-499 0 0
-720z" />
        <path d="M160 2560 l0 -640 720 0 720 0 0 640 0 640 -720 0 -720 0 0 -640z" />
        <path d="M1920 2560 l0 -640 640 0 640 0 0 640 0 640 -640 0 -640 0 0 -640z" />
        <path d="M3520 2560 l0 -640 720 0 720 0 0 640 0 640 -720 0 -720 0 0 -640z" />
        <path
            d="M160 1101 c0 -297 4 -520 10 -552 35 -183 196 -344 379 -379 32 -6
255 -10 552 -10 l499 0 0 720 0 720 -720 0 -720 0 0 -499z" />
        <path d="M1920 880 l0 -720 640 0 640 0 0 720 0 720 -640 0 -640 0 0 -720z" />
        <path
            d="M3520 880 l0 -720 499 0 c289 0 521 4 552 10 182 34 344 196 379 379
6 32 10 255 10 552 l0 499 -720 0 -720 0 0 -720z" />
    </g>
</svg>
