<svg width="36" height="36" viewBox="0 0 36 36" fill="none" xmlns="http://www.w3.org/2000/svg">
<path d="M34.905 14.9375L19.155 0.937483C18.8356 0.656924 18.4251 0.502197 18 0.502197C17.5749 0.502197 17.1644 0.656924 16.845 0.937483L1.09499 14.9375C0.827307 15.1743 0.638538 15.4874 0.554068 15.8346C0.469598 16.1819 0.493477 16.5467 0.622494 16.88C0.749401 17.2089 0.972678 17.4918 1.26308 17.6916C1.55348 17.8915 1.89747 17.9989 2.24999 18H3.99999V33.75C3.99999 34.2141 4.18437 34.6592 4.51256 34.9874C4.84075 35.3156 5.28587 35.5 5.74999 35.5H30.25C30.7141 35.5 31.1592 35.3156 31.4874 34.9874C31.8156 34.6592 32 34.2141 32 33.75V18H33.75C34.1025 17.9989 34.4465 17.8915 34.7369 17.6916C35.0273 17.4918 35.2506 17.2089 35.3775 16.88C35.5065 16.5467 35.5304 16.1819 35.4459 15.8346C35.3615 15.4874 35.1727 15.1743 34.905 14.9375V14.9375ZM19.75 32H16.25V26.75C16.25 26.2859 16.4344 25.8407 16.7626 25.5125C17.0907 25.1844 17.5359 25 18 25C18.4641 25 18.9092 25.1844 19.2374 25.5125C19.5656 25.8407 19.75 26.2859 19.75 26.75V32ZM28.5 32H23.25V26.75C23.25 25.3576 22.6969 24.0222 21.7123 23.0377C20.7277 22.0531 19.3924 21.5 18 21.5C16.6076 21.5 15.2722 22.0531 14.2877 23.0377C13.3031 24.0222 12.75 25.3576 12.75 26.75V32H7.5V18H28.5V32ZM6.8525 14.5L18 4.59498L29.1475 14.5H6.8525Z" fill="#EE3255"/>
</svg>
