<svg width="12" height="12" viewBox="0 0 12 12" fill="none" xmlns="http://www.w3.org/2000/svg">
<path d="M9.11508 2.18508C8.97663 2.18508 8.8413 2.22614 8.72618 2.30305C8.61107 2.37997 8.52135 2.48929 8.46837 2.6172C8.41538 2.74511 8.40152 2.88586 8.42853 3.02164C8.45554 3.15743 8.52221 3.28216 8.62011 3.38006C8.718 3.47795 8.84273 3.54462 8.97852 3.57163C9.1143 3.59864 9.25505 3.58478 9.38296 3.5318C9.51087 3.47882 9.62019 3.3891 9.69711 3.27398C9.77403 3.15887 9.81508 3.02353 9.81508 2.88508C9.81508 2.69943 9.74133 2.52138 9.61006 2.39011C9.47878 2.25883 9.30073 2.18508 9.11508 2.18508ZM11.7984 3.59675C11.7871 3.11276 11.6964 2.6339 11.5301 2.17925C11.3818 1.79024 11.1509 1.43799 10.8534 1.14675C10.5646 0.847746 10.2115 0.618351 9.82091 0.475915C9.36746 0.304509 8.88808 0.211787 8.40341 0.201748C7.78508 0.166748 7.58675 0.166748 6.00008 0.166748C4.41341 0.166748 4.21508 0.166748 3.59675 0.201748C3.11209 0.211787 2.6327 0.304509 2.17925 0.475915C1.78939 0.619793 1.43663 0.848992 1.14675 1.14675C0.847746 1.4356 0.618351 1.78867 0.475915 2.17925C0.304509 2.6327 0.211787 3.11209 0.201748 3.59675C0.166748 4.21508 0.166748 4.41341 0.166748 6.00008C0.166748 7.58675 0.166748 7.78508 0.201748 8.40341C0.211787 8.88808 0.304509 9.36746 0.475915 9.82091C0.618351 10.2115 0.847746 10.5646 1.14675 10.8534C1.43663 11.1512 1.78939 11.3804 2.17925 11.5242C2.6327 11.6957 3.11209 11.7884 3.59675 11.7984C4.21508 11.8334 4.41341 11.8334 6.00008 11.8334C7.58675 11.8334 7.78508 11.8334 8.40341 11.7984C8.88808 11.7884 9.36746 11.6957 9.82091 11.5242C10.2115 11.3818 10.5646 11.1524 10.8534 10.8534C11.1522 10.5633 11.3833 10.2107 11.5301 9.82091C11.6964 9.36626 11.7871 8.88741 11.7984 8.40341C11.7984 7.78508 11.8334 7.58675 11.8334 6.00008C11.8334 4.41341 11.8334 4.21508 11.7984 3.59675ZM10.7484 8.33341C10.7442 8.7037 10.6771 9.07057 10.5501 9.41842C10.4569 9.67228 10.3073 9.90166 10.1126 10.0892C9.92338 10.282 9.69446 10.4313 9.44175 10.5267C9.09391 10.6538 8.72703 10.7208 8.35675 10.7251C7.77342 10.7542 7.55758 10.7601 6.02341 10.7601C4.48925 10.7601 4.27341 10.7601 3.69008 10.7251C3.3056 10.7323 2.92276 10.6731 2.55841 10.5501C2.31679 10.4498 2.09837 10.3009 1.91675 10.1126C1.72313 9.92518 1.57541 9.69561 1.48508 9.44175C1.34266 9.08892 1.26367 8.71371 1.25175 8.33341C1.25175 7.75008 1.21675 7.53425 1.21675 6.00008C1.21675 4.46591 1.21675 4.25008 1.25175 3.66675C1.25436 3.2882 1.32347 2.91305 1.45591 2.55841C1.55861 2.3122 1.71624 2.09272 1.91675 1.91675C2.09397 1.71618 2.313 1.55689 2.55841 1.45008C2.91399 1.32177 3.28875 1.25471 3.66675 1.25175C4.25008 1.25175 4.46591 1.21675 6.00008 1.21675C7.53425 1.21675 7.75008 1.21675 8.33341 1.25175C8.7037 1.256 9.07057 1.32306 9.41842 1.45008C9.6835 1.54846 9.92142 1.70841 10.1126 1.91675C10.3037 2.09594 10.4531 2.31501 10.5501 2.55841C10.6797 2.91363 10.7468 3.28862 10.7484 3.66675C10.7776 4.25008 10.7834 4.46591 10.7834 6.00008C10.7834 7.53425 10.7776 7.75008 10.7484 8.33341ZM6.00008 3.00758C5.40847 3.00873 4.83048 3.18522 4.33913 3.51474C3.84778 3.84426 3.46514 4.31203 3.23953 4.85894C3.01393 5.40585 2.9555 6.00735 3.07163 6.58746C3.18775 7.16756 3.47322 7.70023 3.89196 8.11815C4.3107 8.53608 4.84392 8.82051 5.42425 8.9355C6.00458 9.0505 6.60597 8.99089 7.15244 8.76423C7.69891 8.53756 8.16593 8.154 8.49449 7.66202C8.82305 7.17003 8.99841 6.59169 8.99841 6.00008C8.99919 5.60639 8.92212 5.21643 8.77164 4.85264C8.62116 4.48884 8.40024 4.15839 8.12159 3.88028C7.84294 3.60217 7.51205 3.38189 7.14796 3.23212C6.78387 3.08235 6.39377 3.00604 6.00008 3.00758ZM6.00008 7.94258C5.61589 7.94258 5.24033 7.82866 4.92089 7.61521C4.60144 7.40177 4.35247 7.09839 4.20545 6.74344C4.05842 6.3885 4.01995 5.99793 4.09491 5.62112C4.16986 5.24431 4.35486 4.89819 4.62653 4.62653C4.89819 4.35486 5.24431 4.16986 5.62112 4.09491C5.99793 4.01995 6.3885 4.05842 6.74344 4.20545C7.09839 4.35247 7.40177 4.60144 7.61521 4.92089C7.82866 5.24033 7.94258 5.61589 7.94258 6.00008C7.94258 6.25517 7.89234 6.50777 7.79472 6.74344C7.6971 6.97912 7.55401 7.19326 7.37364 7.37364C7.19326 7.55401 6.97912 7.6971 6.74344 7.79472C6.50777 7.89234 6.25517 7.94258 6.00008 7.94258Z" fill="#E9E9E9"/>
</svg>
