<svg width="36" height="32" viewBox="0 0 36 32" fill="none" xmlns="http://www.w3.org/2000/svg">
<path d="M30.25 5.5H25V3.75C25 2.82174 24.6313 1.9315 23.9749 1.27513C23.3185 0.618749 22.4283 0.25 21.5 0.25H14.5C13.5717 0.25 12.6815 0.618749 12.0251 1.27513C11.3687 1.9315 11 2.82174 11 3.75V5.5H5.75C4.35761 5.5 3.02226 6.05312 2.03769 7.03769C1.05312 8.02226 0.5 9.35761 0.5 10.75V26.5C0.5 27.8924 1.05312 29.2277 2.03769 30.2123C3.02226 31.1969 4.35761 31.75 5.75 31.75H30.25C31.6424 31.75 32.9777 31.1969 33.9623 30.2123C34.9469 29.2277 35.5 27.8924 35.5 26.5V10.75C35.5 9.35761 34.9469 8.02226 33.9623 7.03769C32.9777 6.05312 31.6424 5.5 30.25 5.5ZM14.5 3.75H21.5V5.5H14.5V3.75ZM32 26.5C32 26.9641 31.8156 27.4092 31.4874 27.7374C31.1592 28.0656 30.7141 28.25 30.25 28.25H5.75C5.28587 28.25 4.84075 28.0656 4.51256 27.7374C4.18437 27.4092 4 26.9641 4 26.5V16.6825L12.19 19.5C12.3758 19.5252 12.5642 19.5252 12.75 19.5H23.25C23.4398 19.4965 23.6282 19.4671 23.81 19.4125L32 16.6825V26.5ZM32 12.99L22.97 16H13.03L4 12.99V10.75C4 10.2859 4.18437 9.84075 4.51256 9.51256C4.84075 9.18437 5.28587 9 5.75 9H30.25C30.7141 9 31.1592 9.18437 31.4874 9.51256C31.8156 9.84075 32 10.2859 32 10.75V12.99Z" fill="#EE3255"/>
</svg>
