<svg width="14" height="14" viewBox="0 0 14 14" fill="none" xmlns="http://www.w3.org/2000/svg">
<path d="M2.91871 4.08324H2.90228C2.72342 4.09403 2.54426 4.06783 2.37598 4.00627C2.2077 3.94471 2.05391 3.84911 1.92423 3.72546C1.79455 3.6018 1.69176 3.45274 1.62227 3.28757C1.55278 3.12241 1.51809 2.94469 1.52037 2.76552C1.52264 2.58634 1.56183 2.40956 1.63549 2.24622C1.70915 2.08287 1.81569 1.93646 1.94847 1.81613C2.08125 1.69581 2.23741 1.60415 2.4072 1.54688C2.57699 1.48962 2.75676 1.46797 2.93529 1.48329C3.1147 1.4703 3.29487 1.49456 3.46445 1.55457C3.63403 1.61457 3.78937 1.709 3.92069 1.83194C4.05201 1.95488 4.15648 2.10366 4.22752 2.26892C4.29856 2.43418 4.33464 2.61235 4.3335 2.79224C4.33235 2.97212 4.294 3.14982 4.22085 3.31416C4.14771 3.4785 4.04136 3.62593 3.90848 3.74719C3.7756 3.86844 3.61907 3.96089 3.44874 4.01872C3.2784 4.07656 3.09795 4.09852 2.91871 4.08324Z" fill="#E9E9E9"/>
<path d="M4.09383 5.83325H1.7605V12.8333H4.09383V5.83325Z" fill="#E9E9E9"/>
<path d="M10.2185 5.83325C9.82531 5.83433 9.43745 5.92426 9.0839 6.09633C8.73036 6.26839 8.42028 6.51815 8.17684 6.82692V5.83325H5.84351V12.8333H8.17684V9.62492C8.17684 9.3155 8.29976 9.01875 8.51855 8.79996C8.73734 8.58117 9.03409 8.45825 9.34351 8.45825C9.65293 8.45825 9.94967 8.58117 10.1685 8.79996C10.3873 9.01875 10.5102 9.3155 10.5102 9.62492V12.8333H12.8435V8.45825C12.8435 8.11353 12.7756 7.77219 12.6437 7.45371C12.5118 7.13523 12.3184 6.84585 12.0747 6.6021C11.8309 6.35834 11.5415 6.16499 11.2231 6.03307C10.9046 5.90115 10.5632 5.83325 10.2185 5.83325Z" fill="#E9E9E9"/>
</svg>
