<svg width="14" height="14" viewBox="0 0 14 14" fill="none" xmlns="http://www.w3.org/2000/svg">
<path d="M11.935 5.61748C11.8531 4.76518 11.5519 3.94861 11.0607 3.24729C10.5695 2.54597 9.90505 1.98379 9.13207 1.61551C8.35909 1.24723 7.50392 1.0854 6.64983 1.14576C5.79573 1.20613 4.97182 1.48664 4.25833 1.95998C3.64536 2.36985 3.13077 2.9104 2.75154 3.54279C2.37231 4.17518 2.13785 4.8837 2.06499 5.61748C1.99352 6.34644 2.08522 7.08218 2.33342 7.7713C2.58163 8.46043 2.98012 9.08566 3.49999 9.60164L6.59166 12.6991C6.64589 12.7538 6.7104 12.7972 6.78149 12.8268C6.85257 12.8564 6.92882 12.8717 7.00582 12.8717C7.08283 12.8717 7.15908 12.8564 7.23016 12.8268C7.30125 12.7972 7.36576 12.7538 7.41999 12.6991L10.5 9.60164C11.0199 9.08566 11.4184 8.46043 11.6666 7.7713C11.9148 7.08218 12.0065 6.34644 11.935 5.61748ZM9.68332 8.77914L6.99999 11.4625L4.31666 8.77914C3.92121 8.38367 3.61829 7.9055 3.42968 7.379C3.24107 6.8525 3.17145 6.29076 3.22583 5.73414C3.28055 5.16895 3.46019 4.62299 3.75174 4.13572C4.0433 3.64845 4.43948 3.23206 4.91166 2.91664C5.53054 2.50553 6.257 2.28623 6.99999 2.28623C7.74298 2.28623 8.46944 2.50553 9.08832 2.91664C9.55907 3.23084 9.95438 3.64539 10.2459 4.13052C10.5373 4.61566 10.7178 5.15933 10.7742 5.72248C10.8303 6.28098 10.7616 6.84497 10.5729 7.37363C10.3842 7.90229 10.0804 8.38238 9.68332 8.77914ZM6.99999 3.49998C6.48082 3.49998 5.9733 3.65393 5.54162 3.94237C5.10994 4.23081 4.77349 4.64078 4.57481 5.12043C4.37613 5.60009 4.32414 6.12789 4.42543 6.63709C4.52672 7.14629 4.77672 7.61402 5.14384 7.98113C5.51095 8.34825 5.97868 8.59825 6.48788 8.69954C6.99708 8.80083 7.52488 8.74884 8.00454 8.55016C8.48419 8.35148 8.89416 8.01503 9.1826 7.58335C9.47104 7.15167 9.62499 6.64415 9.62499 6.12498C9.62345 5.42926 9.34639 4.76247 8.85444 4.27052C8.3625 3.77857 7.69571 3.50152 6.99999 3.49998ZM6.99999 7.58331C6.71156 7.58331 6.42961 7.49778 6.18979 7.33754C5.94996 7.17729 5.76305 6.94953 5.65267 6.68306C5.54229 6.41658 5.51341 6.12336 5.56968 5.84047C5.62595 5.55758 5.76484 5.29773 5.96879 5.09378C6.17275 4.88983 6.4326 4.75094 6.71548 4.69466C6.99837 4.63839 7.2916 4.66727 7.55807 4.77765C7.82455 4.88803 8.05231 5.07495 8.21255 5.31477C8.3728 5.55459 8.45832 5.83655 8.45832 6.12498C8.45832 6.51175 8.30468 6.88268 8.03119 7.15617C7.7577 7.42967 7.38677 7.58331 6.99999 7.58331Z" fill="white"/>
</svg>
