<svg width="36" height="36" viewBox="0 0 36 36" fill="none" xmlns="http://www.w3.org/2000/svg">
<path d="M21.5 28.5C21.9641 28.5 22.4093 28.3156 22.7374 27.9875C23.0656 27.6593 23.25 27.2141 23.25 26.75V23.25C23.25 22.7859 23.0656 22.3408 22.7374 22.0126C22.4093 21.6844 21.9641 21.5 21.5 21.5C21.0359 21.5 20.5908 21.6844 20.2626 22.0126C19.9344 22.3408 19.75 22.7859 19.75 23.25V26.75C19.75 27.2141 19.9344 27.6593 20.2626 27.9875C20.5908 28.3156 21.0359 28.5 21.5 28.5ZM14.5 28.5C14.9641 28.5 15.4093 28.3156 15.7374 27.9875C16.0656 27.6593 16.25 27.2141 16.25 26.75V23.25C16.25 22.7859 16.0656 22.3408 15.7374 22.0126C15.4093 21.6844 14.9641 21.5 14.5 21.5C14.0359 21.5 13.5908 21.6844 13.2626 22.0126C12.9344 22.3408 12.75 22.7859 12.75 23.25V26.75C12.75 27.2141 12.9344 27.6593 13.2626 27.9875C13.5908 28.3156 14.0359 28.5 14.5 28.5ZM30.25 7.50002H27.835L24.8075 1.46252C24.715 1.24036 24.5777 1.03967 24.4041 0.872991C24.2305 0.706311 24.0244 0.577221 23.7987 0.493791C23.573 0.41036 23.3325 0.37438 23.0922 0.388101C22.8519 0.401821 22.6171 0.464946 22.4023 0.573532C22.1876 0.682117 21.9975 0.833829 21.8441 1.01919C21.6906 1.20454 21.577 1.41956 21.5104 1.65081C21.4438 1.88205 21.4255 2.12455 21.4569 2.36315C21.4882 2.60175 21.5684 2.83132 21.6925 3.03752L23.915 7.50002H12.085L14.3075 3.03752C14.4774 2.6296 14.4866 2.17253 14.3334 1.75807C14.1802 1.34361 13.8759 1.00244 13.4816 0.803057C13.0873 0.603677 12.6321 0.560849 12.2075 0.68317C11.7829 0.805491 11.4203 1.08391 11.1925 1.46252L8.165 7.50002H5.75C4.51308 7.51883 3.32254 7.97382 2.38834 8.78475C1.45414 9.59567 0.836307 10.7104 0.643802 11.9324C0.451296 13.1544 0.696487 14.4051 1.33613 15.464C1.97577 16.5229 2.96877 17.3218 4.14 17.72L5.435 30.775C5.56559 32.0745 6.17586 33.2787 7.14663 34.1524C8.1174 35.0261 9.37898 35.5066 10.685 35.5H25.35C26.656 35.5066 27.9176 35.0261 28.8884 34.1524C29.8591 33.2787 30.4694 32.0745 30.6 30.775L31.895 17.72C33.0688 17.3207 34.0633 16.5188 34.7025 15.4564C35.3417 14.394 35.5843 13.1396 35.3873 11.9155C35.1902 10.6914 34.5663 9.57654 33.626 8.76837C32.6858 7.9602 31.4898 7.51089 30.25 7.50002V7.50002ZM27.0825 30.425C27.039 30.8582 26.8356 31.2596 26.512 31.5508C26.1884 31.842 25.7678 32.0022 25.3325 32H10.6675C10.2322 32.0022 9.81164 31.842 9.48805 31.5508C9.16445 31.2596 8.96103 30.8582 8.9175 30.425L7.675 18H28.325L27.0825 30.425ZM30.25 14.5H5.75C5.28587 14.5 4.84076 14.3156 4.51257 13.9875C4.18438 13.6593 4 13.2141 4 12.75C4 12.2859 4.18438 11.8408 4.51257 11.5126C4.84076 11.1844 5.28587 11 5.75 11H30.25C30.7141 11 31.1593 11.1844 31.4874 11.5126C31.8156 11.8408 32 12.2859 32 12.75C32 13.2141 31.8156 13.6593 31.4874 13.9875C31.1593 14.3156 30.7141 14.5 30.25 14.5Z" fill="#EE3255"/>
</svg>
