<svg version="1.0" xmlns="http://www.w3.org/2000/svg"
    width="512.000000pt" height="512.000000pt" viewBox="0 0 512.000000 512.000000"
    preserveAspectRatio="xMidYMid meet">

    <g transform="translate(0.000000,512.000000) scale(0.100000,-0.100000)"
        fill="#8f8f8f" stroke="none">
        <path
            d="M1335 5106 c-98 -31 -169 -97 -204 -190 l-21 -57 0 -2299 0 -2299 21
-58 c28 -72 94 -144 162 -174 l52 -24 1215 0 1215 0 52 24 c68 30 134 102 162
174 l21 58 0 2299 0 2299 -21 58 c-28 72 -94 144 -162 174 l-52 24 -1200 2
c-948 1 -1208 -1 -1240 -11z m2425 -174 c19 -9 45 -32 57 -51 21 -31 23 -46
23 -152 l0 -119 -1280 0 -1280 0 0 119 c0 106 2 121 23 152 49 74 -43 69 1257
69 1089 0 1167 -1 1200 -18z m80 -2202 l0 -1710 -1280 0 -1280 0 0 1710 0
1710 1280 0 1280 0 0 -1710z m0 -2169 c0 -283 0 -289 -23 -322 -49 -74 43 -69
-1257 -69 -1300 0 -1208 -5 -1257 69 -23 33 -23 39 -23 322 l0 289 1280 0
1280 0 0 -289z" />
        <path
            d="M2075 4835 c-32 -31 -32 -75 -1 -112 l24 -28 462 0 462 0 24 28 c31
37 31 81 -1 112 l-24 25 -461 0 -461 0 -24 -25z" />
        <path
            d="M3443 4838 c-30 -34 -34 -55 -19 -92 22 -53 115 -73 191 -41 58 23
70 90 25 135 -17 17 -34 20 -98 20 -69 0 -81 -3 -99 -22z" />
        <path
            d="M2391 759 c-108 -33 -171 -123 -171 -246 0 -111 54 -201 142 -237 53
-23 343 -23 396 0 152 63 194 300 74 420 -59 60 -91 69 -257 71 -82 1 -165 -3
-184 -8z m313 -180 c21 -16 26 -29 26 -63 0 -23 -7 -52 -16 -64 -14 -21 -22
-22 -154 -22 -132 0 -140 1 -154 22 -9 12 -16 41 -16 64 0 34 5 47 26 63 24
19 40 21 144 21 104 0 120 -2 144 -21z" />
    </g>
</svg>
